<?xml version="1.0" encoding="UTF-8"?>
<svg id="Capa_1" data-name="Capa 1" xmlns="http://www.w3.org/2000/svg" version="1.1" viewBox="0 0 512 512">
  <defs>
    <style>
      .cls-1 {
        fill: #5c5e70;
      }

      .cls-1, .cls-2, .cls-3, .cls-4, .cls-5, .cls-6, .cls-7, .cls-8 {
        stroke-width: 0px;
      }

      .cls-2 {
        fill: #22c55d;
      }

      .cls-3 {
        fill: #f2ce86;
      }

      .cls-4 {
        fill: #f9eed7;
      }

      .cls-5 {
        fill: #fff;
      }

      .cls-6 {
        fill: #fcf8f2;
      }

      .cls-7 {
        fill: #ffdc8d;
      }

      .cls-8 {
        fill: #ffece3;
      }
    </style>
  </defs>
  <circle class="cls-2" cx="256" cy="256" r="256"/>
  <path class="cls-7" d="M456.2,415.5c-20.5,25.7-45.9,47.4-74.8,63.7-18.7,10.6-38.9,18.8-60.2,24.4h-10.7c-21.3,0-42.3-5.1-61.3-15l-111.7-58.3-24.6-13.5-26.8-14.8,135.3-6.3c15.3,0,11.5-37.5,11.5-52.8l73.2-126.9,90.9,90.9c12.4,12.4,22.1,27.1,28.7,43,6.6,15.9,10.1,33.1,10.1,50.7l20.4,14.8Z"/>
  <g>
    <path class="cls-3" d="M381.5,479.2c-18.7,10.6-38.9,18.8-60.2,24.4h-10.7c-21.3,0-42.3-5.1-61.3-15l-111.7-58.3-24.6-13.5,156.7,11.8s30.3,50.6,111.7,50.6h0Z"/>
    <path class="cls-3" d="M86.7,165.1h-15.3c-.8,0-1.5,0-2.3,0-8,0-16,3.1-22.2,9.2-12.2,12.2-12.2,32.1,0,44.3l17.2,17.3c-6.7.8-13.3,3.8-18.5,8.9-12.2,12.2-12.2,32.1,0,44.3l9.1,9.1c2.6,2.6,5.6,4.7,8.8,6.2.2-.1.4-.3.6-.4v.7c-.2,0-.4-.2-.6-.3-1.5,1-3,2.2-4.3,3.6-12.2,12.2-12.2,32.1,0,44.3l9.1,9.1c1,1,2,1.9,3.1,2.7v-24h15.3s0-174.8,0-174.8Z"/>
  </g>
  <path class="cls-1" d="M278.5,0H99.1C83.8,0,71.4,12.4,71.4,27.7v373.3c0,15.3,12.4,27.7,27.7,27.7h170.6c-14.8-18.4-18.9-42.6-12.2-64.1l37.6-106.1,11.1,11.1V27.7C306.2,12.4,293.8,0,278.5,0"/>
  <path class="cls-8" d="M214,226.4c-6.8,6.8-10.2,15.6-10.2,24.5s3.4,17.8,10.2,24.5l39.9,39.9c10.5,10.5,13.6,26.5,7.2,39.9-1.4,3-2.7,6.1-3.6,9.3H82.5V56.6h212.6v201.8l-32-32c-13.5-13.6-35.5-13.6-49,0Z"/>
  <path class="cls-3" d="M347.5,294.2l-27.4-27.4v-36.7l-13.9-13.9v53.3l33.1,33.1c3.7,3.7,10,1.1,10-4.1,0-1.6-.6-3-1.7-4.1Z"/>
  <path class="cls-5" d="M260.8,273.4v-13.5h13.5v13.5h-13.5M209.7,249.5v-13.5h13.5v27.1h-13.5v-13.5M247.2,249.5v-13.5h13.5v13.5h-13.5M241.9,216.4v3h-13.5v-1.6c-5.2,1.6-10.2,4.5-14.3,8.6-1.7,1.7-3.3,3.6-4.6,5.6v3.7h-2.1c-2.3,4.8-3.5,10-3.5,15.2,0,8.9,3.4,17.8,10.2,24.5l39.9,39.9c10.5,10.5,13.6,26.5,7.2,39.9-1.4,3-2.7,6.1-3.6,9.3h-30.6s30.6,0,30.6,0c-6.7,21.6-2.7,45.7,12.2,64.1h5.9c16.8,0,30.5-13.6,30.6-30.3v-128.8l-11.1-11.1-20.8-20.8v11.9h-13.5v-13.5h11.9l-9.6-9.6c-5.9-5.9-13.5-9.3-21.2-10M295.1,56.6h-115.2s115.2,0,115.2,0h0"/>
  <g>
    <rect class="cls-1" x="128.3" y="127.4" width="13.5" height="13.5"/>
    <rect class="cls-1" x="128.3" y="234.8" width="13.5" height="13.5"/>
    <path class="cls-1" d="M210.7,102.4v63.7h63.7v-63.7h-63.7ZM258.7,150.4h-32.4v-32.4h32.4v32.4Z"/>
    <rect class="cls-1" x="235.7" y="127.4" width="13.5" height="13.5"/>
    <polygon class="cls-1" points="195.6 208.2 195.6 194.7 182 194.7 182 208.2 182 221.7 195.6 221.7 195.6 222.1 195.6 235.6 209.1 235.6 209.1 222.1 209.1 208.6 195.6 208.6 195.6 208.2"/>
    <polygon class="cls-1" points="247.2 177.4 247.2 191 260.8 191 274.3 191 274.3 177.4 260.8 177.4 247.2 177.4"/>
    <rect class="cls-1" x="182.4" y="235.9" width="13.5" height="13.5"/>
    <rect class="cls-1" x="168.5" y="181.1" width="13.5" height="13.5"/>
    <rect class="cls-1" x="260.5" y="206.7" width="13.5" height="13.5"/>
    <polygon class="cls-1" points="228.4 178.8 214.8 178.8 201.3 178.8 201.3 192.3 214.8 192.3 214.8 205.8 228.4 205.8 228.4 219.4 241.9 219.4 241.9 205.8 241.9 192.3 228.4 192.3 228.4 178.8"/>
    <path class="cls-1" d="M134.5,181.1v13.5h13.5v-28.6h18.9v-63.7h-63.7v63.7h31.2v15.1h0ZM118.9,118h32.4v32.4h-32.4s0-32.4,0-32.4Z"/>
    <path class="cls-1" d="M116.8,181.1h-13.5v92.3h63.7v-63.7h-50.1v-28.6h0ZM118.9,225.4h32.4v32.4h-32.4s0-32.4,0-32.4Z"/>
    <polygon class="cls-1" points="195.6 154.5 195.6 141 195.6 127.4 182 127.4 182 141 182 154.5 182 168.1 195.6 168.1 195.6 154.5"/>
  </g>
  <path class="cls-8" d="M102.4,359.9h172.6c11,0,20,9,20,20v37.4H82.4v-37.4c0-11,9-20,20-20Z" transform="translate(377.5 777.1) rotate(180)"/>
  <path class="cls-7" d="M295.1,258.4l-32-32c-13.5-13.5-35.5-13.5-49,0-6.8,6.8-10.2,15.6-10.2,24.5s3.4,17.8,10.2,24.5l39.9,39.9c10.5,10.5,13.6,26.5,7.2,39.9-1.4,3-2.7,6.1-3.6,9.3-6.7,21.6-2.7,45.7,12.2,64.1l13.5,14.7c15.3,0,40.8-19.2,40.8-34.5l-17.7-139.4-11.1-11.1Z"/>
  <path class="cls-4" d="M255.3,236.8c-8.2-8.2-21.4-8.2-29.6,0s-8.2,21.4,0,29.6,15.2,2,23.4-6.2c8.2-8.2,14.4-15.2,6.2-23.4Z"/>
  <circle class="cls-6" cx="247.3" cy="244.1" r="4.9"/>
  <path class="cls-8" d="M102.5,8.8h172.6c11,0,20,9,20,20v31.1H82.5v-31.1c0-11,9-20,20-20Z"/>
  <rect class="cls-1" x="161.8" y="16.9" width="53.8" height="10.6" rx="5.3" ry="5.3"/>
</svg>